<?xml version="1.0" encoding="utf-8"?>
<!-- Generator: Adobe Illustrator 22.0.1, SVG Export Plug-In . SVG Version: 6.00 Build 0)  -->
<svg version="1.1" id="레이어_1" xmlns="http://www.w3.org/2000/svg" xmlns:xlink="http://www.w3.org/1999/xlink" x="0px"
	 y="0px" viewBox="0 0 100.7 92.7" style="enable-background:new 0 0 100.7 92.7;" xml:space="preserve">
<style type="text/css">
	.st0{fill:#381E1F;}
	.st1{fill:url(#SVGID_1_);}
	.st2{fill:url(#SVGID_2_);}
	.st3{fill:url(#SVGID_3_);}
	.st4{fill:url(#SVGID_4_);}
	.st5{fill:#FFFFFF;}
</style>
<g>
	<path class="st0" d="M50,0.3C22.4,0.3,0,17.9,0,39.8C0,54,9.5,66.4,23.7,73.4c-1,3.9-3.8,14.1-4.3,16.3c-0.7,2.7,1,2.7,2.1,2
		c0.9-0.6,13.7-9.3,19.2-13.1c3,0.4,6.1,0.7,9.3,0.7c27.6,0,50-17.7,50-39.5S77.6,0.3,50,0.3z"/>
	<g>
		<g>
			<g>
				<linearGradient id="SVGID_1_" gradientUnits="userSpaceOnUse" x1="13.0979" y1="43.4081" x2="33.6647" y2="43.4081">
					<stop  offset="0" style="stop-color:#E5DD4A"/>
					<stop  offset="2.374291e-02" style="stop-color:#E5DC47"/>
					<stop  offset="0.1784" style="stop-color:#E4D83C"/>
					<stop  offset="0.3958" style="stop-color:#E4D635"/>
					<stop  offset="1" style="stop-color:#E4D533"/>
				</linearGradient>
				<path class="st1" d="M31.2,31.2c-3.6,0-15.8,0-15.8,0c-3.1,0-3,5.1,0,5.1h5.2c0,0,0,14.2,0,17.5c0,2.4,5.4,2.4,5.4,0l0-17.5
					c0,0,1.7,0,5.2,0C34.5,36.3,34.5,31.2,31.2,31.2z"/>
			</g>
			<g>
				<g>
					<linearGradient id="SVGID_2_" gradientUnits="userSpaceOnUse" x1="29.4683" y1="43.4256" x2="51.0364" y2="43.4256">
						<stop  offset="0" style="stop-color:#E5DD4A"/>
						<stop  offset="2.374291e-02" style="stop-color:#E5DC47"/>
						<stop  offset="0.1784" style="stop-color:#E4D83C"/>
						<stop  offset="0.3958" style="stop-color:#E4D635"/>
						<stop  offset="1" style="stop-color:#E4D533"/>
					</linearGradient>
					<path class="st2" d="M43.4,32.7c-0.8-1.7-5.2-2.5-6.4,0c-1.3,2.8-5.9,16.2-7.5,19.7c-1.1,2.6,3.7,4.6,4.8,2.1l1-3.6l9.5,0
						c0,0-0.3,0.2,0.9,3.5c1,2.7,6,0.8,5-1.9C49.4,48.6,44.4,34.7,43.4,32.7z M37.2,46.1l3.1-9.1l2.9,9.1H37.2z"/>
				</g>
			</g>
			<g>
				<linearGradient id="SVGID_3_" gradientUnits="userSpaceOnUse" x1="52.7214" y1="43.3933" x2="67.112" y2="43.3933">
					<stop  offset="0" style="stop-color:#E5DD4A"/>
					<stop  offset="2.374291e-02" style="stop-color:#E5DC47"/>
					<stop  offset="0.1784" style="stop-color:#E4D83C"/>
					<stop  offset="0.3958" style="stop-color:#E4D635"/>
					<stop  offset="1" style="stop-color:#E4D533"/>
				</linearGradient>
				<path class="st3" d="M65.3,50.4c-2.4,0-6.9,0-6.9,0s0-13.5,0-16.8c0-3.2-5.6-3.2-5.6,0c0,4.5,0,19.1,0,19.1s-0.4,2.9,2.1,2.9
					c2.5,0,8,0,10.5,0C67.7,55.6,67.7,50.4,65.3,50.4z"/>
			</g>
			<g>
				<linearGradient id="SVGID_4_" gradientUnits="userSpaceOnUse" x1="68.3215" y1="43.4498" x2="86.7529" y2="43.4498">
					<stop  offset="0" style="stop-color:#E5DD4A"/>
					<stop  offset="2.374291e-02" style="stop-color:#E5DC47"/>
					<stop  offset="0.1784" style="stop-color:#E4D83C"/>
					<stop  offset="0.3958" style="stop-color:#E4D635"/>
					<stop  offset="1" style="stop-color:#E4D533"/>
				</linearGradient>
				<path class="st4" d="M86.5,51.9l-7.3-9.6c0,0,5-5.4,6.9-7.3c1.1-1.1-2.4-4.7-3.5-3.6c-1.1,1.1-8.9,8.9-8.9,8.9s0.1-4.9,0-7.6
					c-0.1-2.1-5.4-2-5.3,0.1c0.1,2-0.1,20-0.1,21.3c0,2.1,5.4,2.1,5.4,0c0-2.4,0-7.1,0-7.1l1.6-1.3l6.9,9.4
					C83.5,57,87.9,53.7,86.5,51.9z"/>
			</g>
		</g>
	</g>
</g>
<g>
	<polygon class="st5" points="350,-215.4 350,-173 321,-215.4 289.6,-215.4 289.6,-131.4 320.9,-131.4 320.9,-173.8 349.9,-131.4 
		381.3,-131.4 381.3,-215.4 	"/>
</g>
</svg>
