<?xml version="1.0" encoding="utf-8"?>
<!-- Generator: Adobe Illustrator 22.0.1, SVG Export Plug-In . SVG Version: 6.00 Build 0)  -->
<svg version="1.1" id="레이어_1" xmlns="http://www.w3.org/2000/svg" xmlns:xlink="http://www.w3.org/1999/xlink" x="0px"
	 y="0px" viewBox="0 0 100.7 92.7" style="enable-background:new 0 0 100.7 92.7;" xml:space="preserve">
<style type="text/css">
	.st0{fill:#381E1F;}
	.st1{fill:url(#SVGID_1_);}
	.st2{fill:url(#SVGID_2_);}
	.st3{fill:url(#SVGID_3_);}
	.st4{fill:url(#SVGID_4_);}
	.st5{fill:#FFFFFF;}
</style>
<g>
	<path class="st0" d="M-274,39.5c-27.6,0-50,17.7-50,39.5c0,14.2,9.5,26.7,23.7,33.6c-1,3.9-3.8,14.1-4.3,16.3c-0.7,2.7,1,2.7,2.1,2
		c0.9-0.6,13.7-9.3,19.2-13.1c3,0.4,6.1,0.7,9.3,0.7c27.6,0,50-17.7,50-39.5S-246.4,39.5-274,39.5z"/>
	<g>
		<g>
			<g>
				<linearGradient id="SVGID_1_" gradientUnits="userSpaceOnUse" x1="-310.9021" y1="82.6082" x2="-290.3353" y2="82.6082">
					<stop  offset="0" style="stop-color:#E5DD4A"/>
					<stop  offset="2.374291e-02" style="stop-color:#E5DC47"/>
					<stop  offset="0.1784" style="stop-color:#E4D83C"/>
					<stop  offset="0.3958" style="stop-color:#E4D635"/>
					<stop  offset="1" style="stop-color:#E4D533"/>
				</linearGradient>
				<path class="st1" d="M-292.8,70.4c-3.6,0-15.8,0-15.8,0c-3.1,0-3,5.1,0,5.1h5.2c0,0,0,14.2,0,17.5c0,2.4,5.4,2.4,5.4,0l0-17.5
					c0,0,1.7,0,5.2,0C-289.5,75.5-289.5,70.4-292.8,70.4z"/>
			</g>
			<g>
				<g>
					<linearGradient id="SVGID_2_" gradientUnits="userSpaceOnUse" x1="-294.5317" y1="82.6257" x2="-272.9636" y2="82.6257">
						<stop  offset="0" style="stop-color:#E5DD4A"/>
						<stop  offset="2.374291e-02" style="stop-color:#E5DC47"/>
						<stop  offset="0.1784" style="stop-color:#E4D83C"/>
						<stop  offset="0.3958" style="stop-color:#E4D635"/>
						<stop  offset="1" style="stop-color:#E4D533"/>
					</linearGradient>
					<path class="st2" d="M-280.6,71.9c-0.8-1.7-5.2-2.5-6.4,0c-1.3,2.8-5.9,16.2-7.5,19.7c-1.1,2.6,3.7,4.6,4.8,2.1l1-3.6l9.5,0
						c0,0-0.3,0.2,0.9,3.5c1,2.7,6,0.8,5-1.9C-274.6,87.8-279.6,73.9-280.6,71.9z M-286.8,85.3l3.1-9.1l2.9,9.1H-286.8z"/>
				</g>
			</g>
			<g>
				<linearGradient id="SVGID_3_" gradientUnits="userSpaceOnUse" x1="-271.2787" y1="82.5935" x2="-256.8879" y2="82.5935">
					<stop  offset="0" style="stop-color:#E5DD4A"/>
					<stop  offset="2.374291e-02" style="stop-color:#E5DC47"/>
					<stop  offset="0.1784" style="stop-color:#E4D83C"/>
					<stop  offset="0.3958" style="stop-color:#E4D635"/>
					<stop  offset="1" style="stop-color:#E4D533"/>
				</linearGradient>
				<path class="st3" d="M-258.7,89.6c-2.4,0-6.9,0-6.9,0s0-13.5,0-16.8c0-3.2-5.6-3.2-5.6,0c0,4.5,0,19.1,0,19.1s-0.4,2.9,2.1,2.9
					s8,0,10.5,0C-256.3,94.8-256.3,89.6-258.7,89.6z"/>
			</g>
			<g>
				<linearGradient id="SVGID_4_" gradientUnits="userSpaceOnUse" x1="-255.6785" y1="82.6499" x2="-237.2471" y2="82.6499">
					<stop  offset="0" style="stop-color:#E5DD4A"/>
					<stop  offset="2.374291e-02" style="stop-color:#E5DC47"/>
					<stop  offset="0.1784" style="stop-color:#E4D83C"/>
					<stop  offset="0.3958" style="stop-color:#E4D635"/>
					<stop  offset="1" style="stop-color:#E4D533"/>
				</linearGradient>
				<path class="st4" d="M-237.5,91.1l-7.3-9.6c0,0,5-5.4,6.9-7.3c1.1-1.1-2.4-4.7-3.5-3.6c-1.1,1.1-8.9,8.9-8.9,8.9s0.1-4.9,0-7.6
					c-0.1-2.1-5.4-2-5.3,0.1c0.1,2-0.1,20-0.1,21.3c0,2.1,5.4,2.1,5.4,0c0-2.4,0-7.1,0-7.1l1.6-1.3l6.9,9.4
					C-240.5,96.2-236.1,92.9-237.5,91.1z"/>
			</g>
		</g>
	</g>
</g>
<g>
	<polygon class="st5" points="64.9,5.3 64.9,47.7 35.9,5.3 4.5,5.3 4.5,89.3 35.8,89.3 35.8,47 64.8,89.3 96.2,89.3 96.2,5.3 	"/>
</g>
</svg>
